Merlin S05xE02 - Arthur's Bane Part 2

Some ancient prophecies of Mordred weigh on Merlin's mind as he is unable to sway Arthur from his chosen path. The fortress of Ismere is coming ever nearer and Merlin's fear intensifies. It looks like this time, not even Merlin can stop Arthur from walking right into the lion's den.

Screens:
 
http://bayimg.com/LAEciAAEA

overloadextreme.net

Format                                   : AVI
Format/Info                              : Audio Video Interleave
File size                                : 560 MiB
Duration                                 : 43mn 18s
Overall bit rate                         : 1 809 Kbps
Writing application                      : Lavf53.18.0

Video
ID                                       : 0
Format                                   : xvid
Codec ID                                 : xvid
Duration                                 : 43mn 18s
Bit rate                                 : 1 668 Kbps
Width                                    : 720 pixels
Height                                   : 404 pixels
Display aspect ratio                     : 16:9
Frame rate                               : 29.970 fps
Bits/(Pixel*Frame)                       : 0.191
Stream size                              : 517 MiB (92%)

Audio
ID                                       : 1
Format                                   : MPEG Audio
Format version                           : Version 1
Format profile                           : Layer 3
Mode                                     : Joint stereo
Mode extension                           : MS Stereo
Codec ID                                 : 55
Codec ID/Hint                            : MP3
Duration                                 : 43mn 18s
Bit rate mode                            : Constant
Bit rate                                 : 128 Kbps
Channel(s)                               : 2 channels
Sampling rate                            : 44.1 KHz
Compression mode                         : Lossy
Stream size                              : 39.6 MiB (7%)
Alignment                                : Aligned on interleaves
Interleave, duration                     : 26 ms (0.78 video frame)

